<svg xmlns="http://www.w3.org/2000/svg" viewBox="0 0 860 300" width="860" height="300">
  <defs>
    <linearGradient id="bg2" x1="0" y1="0" x2="1" y2="1">
      <stop offset="0%" stop-color="#13131f"/>
      <stop offset="100%" stop-color="#1a1a2e"/>
    </linearGradient>
    <linearGradient id="topBar2" x1="0" y1="0" x2="1" y2="0">
      <stop offset="0%" stop-color="#f59e0b"/>
      <stop offset="100%" stop-color="#fbbf24"/>
    </linearGradient>
  </defs>

  <rect width="860" height="300" rx="16" fill="url(#bg2)"/>
  <rect width="860" height="300" rx="16" fill="none" stroke="#f59e0b" stroke-width="1.5" stroke-opacity="0.3"/>
  <rect x="0" y="0" width="860" height="4" rx="2" fill="url(#topBar2)"/>

  <!-- Header -->
  <text x="36" y="44" font-family="Segoe UI,Arial" font-size="11" font-weight="700" fill="#f59e0b" letter-spacing="1.5">TECHNICAL WRITING</text>
  <text x="180" y="44" font-family="Segoe UI,Arial" font-size="12" fill="#475569">medium.com/@amirhossein_dehghaniazar</text>

  <!-- divider -->
  <rect x="32" y="56" width="796" height="1" fill="#2d2d4e"/>

  <!-- Article 1 -->
  <rect x="32" y="72" width="3" height="42" rx="2" fill="#6366f1"/>
  <text x="50" y="90" font-family="Segoe UI,Arial" font-size="14" font-weight="600" fill="#e2e8f0">JavaScript Engine Internals: V8 and SpiderMonkey</text>
  <text x="50" y="108" font-family="Segoe UI,Arial" font-size="12" fill="#64748b">Parse, Optimize, Execute — how JS actually runs</text>
  <rect x="760" y="74" width="70" height="22" rx="11" fill="#6366f1" fill-opacity="0.15" stroke="#6366f1" stroke-width="1" stroke-opacity="0.4"/>
  <text x="795" y="89" font-family="Segoe UI,Arial" font-size="12" fill="#a5b4fc" text-anchor="middle">235 👁</text>

  <!-- Article 2 -->
  <rect x="32" y="126" width="3" height="42" rx="2" fill="#f59e0b"/>
  <text x="50" y="144" font-family="Segoe UI,Arial" font-size="14" font-weight="600" fill="#e2e8f0">From Monolith to Micro Frontends</text>
  <text x="50" y="162" font-family="Segoe UI,Arial" font-size="12" fill="#64748b">A complete guide to web scalability architecture</text>
  <rect x="760" y="128" width="70" height="22" rx="11" fill="#f59e0b" fill-opacity="0.12" stroke="#f59e0b" stroke-width="1" stroke-opacity="0.4"/>
  <text x="795" y="143" font-family="Segoe UI,Arial" font-size="12" fill="#fbbf24" text-anchor="middle">250 👁</text>

  <!-- Article 3 -->
  <rect x="32" y="180" width="3" height="42" rx="2" fill="#10b981"/>
  <text x="50" y="198" font-family="Segoe UI,Arial" font-size="14" font-weight="600" fill="#e2e8f0">Building a Connection-Stabilizing Feature</text>
  <text x="50" y="216" font-family="Segoe UI,Arial" font-size="12" fill="#64748b">Keeping web apps alive on unstable networks</text>
  <rect x="760" y="182" width="70" height="22" rx="11" fill="#10b981" fill-opacity="0.12" stroke="#10b981" stroke-width="1" stroke-opacity="0.4"/>
  <text x="795" y="197" font-family="Segoe UI,Arial" font-size="12" fill="#6ee7b7" text-anchor="middle">139 👁</text>

  <!-- Article 4 -->
  <rect x="32" y="234" width="3" height="42" rx="2" fill="#ec4899"/>
  <text x="50" y="252" font-family="Segoe UI,Arial" font-size="14" font-weight="600" fill="#e2e8f0">Unlocking the Power of 2FA — Introducing 2Auth-js</text>
  <text x="50" y="270" font-family="Segoe UI,Arial" font-size="12" fill="#64748b">Open-source two-factor auth library for the web</text>
  <rect x="760" y="236" width="70" height="22" rx="11" fill="#ec4899" fill-opacity="0.12" stroke="#ec4899" stroke-width="1" stroke-opacity="0.4"/>
  <text x="795" y="251" font-family="Segoe UI,Arial" font-size="12" fill="#f9a8d4" text-anchor="middle">80 👁</text>
</svg>