<svg xmlns="http://www.w3.org/2000/svg" viewBox="0 0 860 350" width="860" height="350">
  <rect width="860" height="350" rx="12" fill="#0d1117"/>
  <rect width="860" height="350" rx="12" fill="none" stroke="#30363d" stroke-width="1"/>
  <rect x="0" y="0" width="860" height="3" rx="2" fill="#2f81f7"/>

  <text x="32" y="40" font-family="system-ui,-apple-system,Segoe UI,sans-serif" font-size="10.5" font-weight="600" fill="#7d8590" letter-spacing="0.08em">TECHNICAL WRITING</text>
  <text x="32" y="58" font-family="system-ui,-apple-system,Segoe UI,sans-serif" font-size="12" fill="#484f58">medium.com/@amirhossein_dehghaniazar</text>
  <rect x="32" y="68" width="796" height="1" fill="#21262d"/>

  <rect x="32" y="82" width="3" height="46" rx="1.5" fill="#3fb950"/>
  <text x="50" y="100" font-family="system-ui,-apple-system,Segoe UI,sans-serif" font-size="13.5" font-weight="600" fill="#e6edf3">JavaScript Engine Internals: V8 and SpiderMonkey</text>
  <text x="50" y="118" font-family="system-ui,-apple-system,Segoe UI,sans-serif" font-size="12" fill="#484f58">Parse, Optimize, Execute — how JS actually runs</text>
  <rect x="796" y="87" width="52" height="20" rx="10" fill="#3fb950" fill-opacity="0.1" stroke="#3fb950" stroke-width="1" stroke-opacity="0.4"/>
  <text x="822" y="101" font-family="system-ui,-apple-system,Segoe UI,sans-serif" font-size="11" fill="#3fb950" text-anchor="middle" font-weight="600">235 👁</text>

  <rect x="32" y="138" width="796" height="1" fill="#21262d"/>

  <rect x="32" y="150" width="3" height="46" rx="1.5" fill="#2f81f7"/>
  <text x="50" y="168" font-family="system-ui,-apple-system,Segoe UI,sans-serif" font-size="13.5" font-weight="600" fill="#e6edf3">From Monolith to Micro Frontends</text>
  <text x="50" y="186" font-family="system-ui,-apple-system,Segoe UI,sans-serif" font-size="12" fill="#484f58">A complete guide to web scalability architecture</text>
  <rect x="796" y="155" width="52" height="20" rx="10" fill="#2f81f7" fill-opacity="0.1" stroke="#2f81f7" stroke-width="1" stroke-opacity="0.4"/>
  <text x="822" y="169" font-family="system-ui,-apple-system,Segoe UI,sans-serif" font-size="11" fill="#2f81f7" text-anchor="middle" font-weight="600">250 👁</text>

  <rect x="32" y="206" width="796" height="1" fill="#21262d"/>

  <rect x="32" y="218" width="3" height="46" rx="1.5" fill="#d29922"/>
  <text x="50" y="236" font-family="system-ui,-apple-system,Segoe UI,sans-serif" font-size="13.5" font-weight="600" fill="#e6edf3">How to Build a Connection-Stabilizing Feature</text>
  <text x="50" y="254" font-family="system-ui,-apple-system,Segoe UI,sans-serif" font-size="12" fill="#484f58">Keeping web apps alive on unstable networks</text>
  <rect x="796" y="223" width="52" height="20" rx="10" fill="#d29922" fill-opacity="0.1" stroke="#d29922" stroke-width="1" stroke-opacity="0.4"/>
  <text x="822" y="237" font-family="system-ui,-apple-system,Segoe UI,sans-serif" font-size="11" fill="#d29922" text-anchor="middle" font-weight="600">139 👁</text>

  <rect x="32" y="274" width="796" height="1" fill="#21262d"/>

  <rect x="32" y="286" width="3" height="46" rx="1.5" fill="#f78166"/>
  <text x="50" y="304" font-family="system-ui,-apple-system,Segoe UI,sans-serif" font-size="13.5" font-weight="600" fill="#e6edf3">Unlocking the Power of 2FA — 2Auth-js</text>
  <text x="50" y="322" font-family="system-ui,-apple-system,Segoe UI,sans-serif" font-size="12" fill="#484f58">Securing modern web applications effectively</text>
  <rect x="796" y="291" width="52" height="20" rx="10" fill="#f78166" fill-opacity="0.1" stroke="#f78166" stroke-width="1" stroke-opacity="0.4"/>
  <text x="822" y="305" font-family="system-ui,-apple-system,Segoe UI,sans-serif" font-size="11" fill="#f78166" text-anchor="middle" font-weight="600">80 👁</text>
</svg>
